<svg width="242" height="42" viewBox="0 0 242 42" fill="none" xmlns="http://www.w3.org/2000/svg">
<path d="M77.6594 13.16L76.0594 13.76L70.6194 5.76H66.2194V31.6L70.4994 32.92L69.4994 34.92H56.5394V33.28L60.2994 30.32V5.76H56.0194L50.5794 13.76L48.9794 13.16V2.76L51.4194 3.48H75.2194L77.6594 2.76V13.16Z" fill="black"/>
<path d="M106.616 34.92H98.416V21.72C98.416 20.3067 98.2026 19.3333 97.776 18.8C97.3493 18.24 96.6026 17.96 95.536 17.96C94.736 17.96 93.936 18.0933 93.136 18.36C92.336 18.6267 91.4293 19.1333 90.416 19.88V31.6L94.016 32.92L93.016 34.92H81.256V33.28L84.816 30.4V6.88L81.256 4.44V2.8L88.496 0H90.416V17.48L95.496 13.48C96.056 13.2667 96.8293 13.16 97.816 13.16C99.7093 13.16 101.216 13.72 102.336 14.84C103.456 15.9333 104.016 17.4267 104.016 19.32V31.6L107.616 32.92L106.616 34.92Z" fill="black"/>
<path d="M124.978 34.88C123.751 35.1733 122.245 35.32 120.458 35.32C118.618 35.32 116.965 34.8667 115.498 33.96C114.058 33.0267 112.925 31.7733 112.098 30.2C111.271 28.6 110.858 26.84 110.858 24.92C110.858 22.84 111.498 20.9067 112.778 19.12C114.085 17.3067 115.711 15.8667 117.658 14.8C119.605 13.7067 121.485 13.16 123.298 13.16C125.938 13.16 127.991 14.1867 129.458 16.24C130.925 18.2933 131.645 21.0533 131.618 24.52H116.938C117.151 26.5467 117.751 28.1867 118.738 29.44C119.751 30.6933 121.111 31.32 122.818 31.32C124.605 31.32 127.165 30.1333 130.498 27.76L131.658 29.6L124.978 34.88ZM121.018 17C118.378 17 116.991 18.8267 116.858 22.48H125.538C125.325 21.1733 125.085 20.16 124.818 19.44C124.578 18.6933 124.151 18.1067 123.538 17.68C122.951 17.2267 122.111 17 121.018 17Z" fill="black"/>
<path d="M177.006 28.32L178.086 30.32L170.726 34.84C169.526 35.1867 168.366 35.4133 167.246 35.52C166.152 35.6533 164.966 35.72 163.686 35.72C160.619 35.72 157.899 35.04 155.526 33.68C153.179 32.32 151.352 30.4533 150.046 28.08C148.739 25.68 148.086 22.96 148.086 19.92C148.086 16.8 149.059 13.92 151.006 11.28C152.979 8.61333 155.419 6.52 158.326 5C161.232 3.45333 163.992 2.68 166.606 2.68C168.179 2.68 170.019 2.88 172.126 3.28C174.259 3.68 175.806 4.10667 176.766 4.56V13H174.326C171.792 8.68 168.446 6.52 164.286 6.52C162.446 6.52 160.779 7.01333 159.286 8C157.792 8.98667 156.619 10.36 155.766 12.12C154.912 13.8533 154.486 15.8133 154.486 18C154.486 20.5333 154.899 22.84 155.726 24.92C156.552 27 157.819 28.6667 159.526 29.92C161.259 31.1733 163.392 31.8 165.926 31.8C167.019 31.8 167.912 31.7733 168.606 31.72C169.326 31.6667 170.152 31.5067 171.086 31.24V22.28L164.846 20.68L165.846 18.68H180.806V20.32L177.006 23.4V28.32Z" fill="black"/>
<path d="M196.16 34.92H184.4V33.28L187.96 30.4V19.68L184.4 17.24V15.6L191.64 12.8H193.56V31.6L197.16 32.92L196.16 34.92ZM190.64 0.76C191.573 0.76 192.346 1.09333 192.96 1.76C193.573 2.4 193.88 3.2 193.88 4.16C193.88 4.82667 193.653 5.46667 193.2 6.08C192.773 6.66667 192.226 7.13333 191.56 7.48C190.92 7.82667 190.293 8 189.68 8C188.746 8 187.973 7.68 187.36 7.04C186.746 6.4 186.44 5.6 186.44 4.64C186.44 3.94667 186.653 3.30667 187.08 2.72C187.533 2.13333 188.08 1.66667 188.72 1.32C189.386 0.946666 190.026 0.76 190.64 0.76Z" fill="black"/>
<path d="M216.298 13.2C217.818 13.2 219.178 13.6667 220.378 14.6C221.605 15.5067 222.565 16.7467 223.258 18.32C223.951 19.8933 224.298 21.64 224.298 23.56C224.298 25.64 223.645 27.5867 222.338 29.4C221.058 31.2133 219.445 32.6667 217.498 33.76C215.551 34.8267 213.671 35.36 211.858 35.36C210.791 35.36 209.778 35.1333 208.818 34.68C207.885 34.2 207.058 33.5467 206.338 32.72L204.578 34.92H202.658V6.88L199.098 4.44V2.8L206.338 0H208.258V17.44L213.258 13.48C214.111 13.2667 215.125 13.16 216.298 13.16V13.2ZM214.178 31.48C216.925 31.48 218.298 29.48 218.298 25.48C218.298 23.1333 217.938 21.1867 217.218 19.64C216.498 18.0667 215.458 17.28 214.098 17.28C213.111 17.28 212.165 17.4533 211.258 17.8C210.378 18.12 209.378 18.7333 208.258 19.64V26.64C208.258 28.0267 208.765 29.1867 209.778 30.12C210.818 31.0267 212.285 31.48 214.178 31.48Z" fill="black"/>
<path d="M240.535 34.92H228.775V33.28L232.335 30.4V19.68L228.775 17.24V15.6L236.015 12.8H237.935V31.6L241.535 32.92L240.535 34.92ZM235.015 0.76C235.948 0.76 236.721 1.09333 237.335 1.76C237.948 2.4 238.255 3.2 238.255 4.16C238.255 4.82667 238.028 5.46667 237.575 6.08C237.148 6.66667 236.601 7.13333 235.935 7.48C235.295 7.82667 234.668 8 234.055 8C233.121 8 232.348 7.68 231.735 7.04C231.121 6.4 230.815 5.6 230.815 4.64C230.815 3.94667 231.028 3.30667 231.455 2.72C231.908 2.13333 232.455 1.66667 233.095 1.32C233.761 0.946666 234.401 0.76 235.015 0.76Z" fill="black"/>
<path d="M31.7187 33.4949L16.5435 41.7921C16.3645 41.8765 16.1718 41.92 15.977 41.92C15.7823 41.92 15.5895 41.8765 15.4106 41.7921L0.234579 33.4949C-0.0743315 33.3253 -0.0743315 33.0471 0.234579 32.8766L3.86891 30.8934C4.04815 30.8091 4.24113 30.7656 4.43614 30.7656C4.63115 30.7656 4.82413 30.8091 5.00338 30.8934L15.4106 36.5765C15.5894 36.6613 15.7822 36.705 15.977 36.705C16.1718 36.705 16.3646 36.6613 16.5435 36.5765L26.9507 30.8934C27.1298 30.8091 27.3226 30.7656 27.5175 30.7656C27.7124 30.7656 27.9053 30.8091 28.0844 30.8934L31.7187 32.8808C32.0315 33.0471 32.0315 33.3253 31.7187 33.4949ZM31.7187 21.9142L28.0844 19.9269C27.9053 19.8425 27.7124 19.799 27.5175 19.799C27.3226 19.799 27.1298 19.8425 26.9507 19.9269L16.5435 25.6167C16.3644 25.7007 16.1717 25.744 15.977 25.744C15.7823 25.744 15.5896 25.7007 15.4106 25.6167L5.00338 19.9269C4.82413 19.8425 4.63115 19.799 4.43614 19.799C4.24113 19.799 4.04815 19.8425 3.86891 19.9269L0.234579 21.9142C-0.0743315 22.0839 -0.0743315 22.3629 0.234579 22.5343L15.4106 30.8298C15.5895 30.9142 15.7823 30.9577 15.977 30.9577C16.1718 30.9577 16.3645 30.9142 16.5435 30.8298L31.7187 22.5343C32.0315 22.3629 32.0315 22.0847 31.7187 21.9142ZM0.234579 12.2684L15.4098 19.9269C15.7739 20.0838 16.1786 20.0838 16.5427 19.9269L31.7187 12.2684C32.0276 12.1106 32.0276 11.8536 31.7187 11.6967L16.5427 4.03898C16.1789 3.88034 15.7736 3.88034 15.4098 4.03898L0.234579 11.6967C-0.0781929 11.8536 -0.0781929 12.1106 0.234579 12.2684Z" fill="black"/>
</svg>
